# xmcd
#
# Track frame offsets:
#	182
#	20272
#	39812
#	52237
#	69947
#	93485
#	108082
#	129902
#	139540
#	167517
#	187625
#	190490
#	201532
#
# Disc length: 3326 seconds
#
# Revision: 1
# Processed by: cddbd v1.5.2PL0 Copyright (c) Steve Scherf et al.
# Submitted via: audiograbber 1.83.01
#
DISCID=a50cfc0d
DTITLE=Peter Arnout and The Dry Livers - PETER ARNOUT and THE DRY LIVERS - Who 
DTITLE=Cares About Hookers?
DYEAR=1900
DGENRE=Blues
TTITLE0=Change The World
TTITLE1=Weird Guy
TTITLE2=Takes A Lot Of Time
TTITLE3=NY City
TTITLE4=My Way
TTITLE5=Who Cares About Hookers?
TTITLE6=Never Coming Back
TTITLE7=Soon It Will Be Over
TTITLE8=Let Me Die
TTITLE9=Tall Grass Bends
TTITLE10=Kafka
TTITLE11=Change Your Uniform
TTITLE12=Unknown Legend
EXTD=
EXTT0=
EXTT1=
EXTT2=
EXTT3=
EXTT4=
EXTT5=
EXTT6=
EXTT7=
EXTT8=
EXTT9=
EXTT10=
EXTT11=
EXTT12=
PLAYORDER=
